<svg xmlns="http://www.w3.org/2000/svg" viewBox="0 0 159.89 74.79"><defs><style>.cls-1{fill:#fff;}.cls-2{fill:#52c7d3;}</style></defs><title>logo-mypa-neg</title><g id="Livello_2" data-name="Livello 2"><g id="Livello_1-2" data-name="Livello 1"><path class="cls-1" d="M43.15,59.45,38.71,31.32H37L31.42,58.72H21.36L15.82,31.32H14.07L9.62,59.45H0L6.92,23H22.23l4.16,22.3L30.54,23H45.85l6.92,36.45Z"/><path class="cls-1" d="M62.55,23l6.63,28.14h1.68L77.49,23h9.62L74.28,74.79H64.73l4-15.31H61.89L52.93,23Z"/><path class="cls-2" d="M99.61,45.19,96.33,59.48H86.27L97.72,9.91H112c10.79,0,15.31,4.23,15.31,14,0,14.21-8.46,21.28-21.5,21.28Zm7.51-8.75c6.12,0,9.84-4.45,9.84-12.39,0-3.64-1.53-5.39-5.69-5.39h-5.54l-4.08,17.79Z"/><path class="cls-2" d="M142.54,9.91h17.35l-1.53,49.57H148.3l.29-8.6H134.16l-3.86,8.6H120.24ZM138,42.13h11l1-23.47h-1.53Z"/><path class="cls-2" d="M69.93,0a9,9,0,1,1-9,9,9,9,0,0,1,9-9"/></g></g></svg>