<svg xmlns="http://www.w3.org/2000/svg" viewBox="0 0 265.58 74.79"><defs><style>.cls-1{fill:#7addb5;}.cls-2{fill:#fff;}</style></defs><title>logo-myportal-neg</title><g id="Livello_2" data-name="Livello 2"><g id="Livello_1-2" data-name="Livello 1"><circle class="cls-1" cx="69.93" cy="9.01" r="9.01"/><path class="cls-2" d="M43.15,59.45,38.71,31.32H37L31.42,58.72H21.36L15.82,31.32H14.07L9.62,59.45H0L6.92,23H22.23l4.16,22.3L30.54,23H45.85l6.92,36.45Z"/><path class="cls-2" d="M62.55,23l6.63,28.14h1.68L77.49,23h9.62L74.28,74.79H64.73l4-15.31H61.89L52.93,23Z"/><path class="cls-1" d="M99.61,45.19,96.33,59.48H86.27L97.72,9.91H112c10.79,0,15.31,4.23,15.31,14,0,14.21-8.46,21.28-21.5,21.28Zm7.51-8.75c6.12,0,9.84-4.45,9.84-12.39,0-3.64-1.53-5.39-5.69-5.39h-5.54l-4.08,17.79Z"/><path class="cls-1" d="M158.76,36c0,11.23-6.2,24.35-18.44,24.35-9,0-14.36-4-14.36-13.78,0-11.23,6.78-24.35,18.44-24.35C153.44,22.23,158.76,26.24,158.76,36Zm-9.7-.15c0-3.35-1.6-5.32-4.67-5.32-5.54,0-8.75,8.6-8.75,16.18,0,3.35,1.6,5.32,4.67,5.32C145.86,52,149.07,43.44,149.07,35.86Z"/><path class="cls-1" d="M167.6,23h9.69L176,28.28s6-5.39,11.44-6.12l-2.84,10.2c-3.57,1.09-10.28,4.15-10.28,4.15l-5.32,23h-9.77Z"/><path class="cls-1" d="M200.67,31.34l-3.35,14.58a22,22,0,0,0-.58,4.08c0,1.39.58,2,2.11,2,1.9,0,5-.36,5-.36l-.8,7a23.14,23.14,0,0,1-8.16,1.68c-5.47,0-8.24-3.57-8.24-7.87A34,34,0,0,1,187.7,45l3.21-13.7H187L189.16,23h3.72L195,13.7h9.77L202.64,23h7.65l-2,8.31Z"/><path class="cls-1" d="M208.31,47.09c0-9.91,5.25-24.93,18.51-24.93,5.32,0,18.22,2.41,18.22,2.41l-5.47,23.54c-1,4.52-2,11.15-2,11.15l-9.69.36s.66-4.45.95-5.69c0,0-4.67,6.41-10.28,6.41C211.15,60.35,208.31,54.67,208.31,47.09Zm9.91,0c0,3.13.73,5,3.72,5s8.53-6.49,8.53-6.49l3.35-14.07a51.54,51.54,0,0,0-6.71-1C221.21,30.47,218.22,40.45,218.22,47.09Z"/><path class="cls-1" d="M255.82,8.46h9.77l-11.74,51h-9.77Z"/></g></g></svg>